<svg width="64" height="64" viewBox="0 0 64 64" fill="none" xmlns="http://www.w3.org/2000/svg">
<g clip-path="url(#clip0_13_364)">
<path d="M64 0H0V64H64V0Z" fill="#DDDDDD"/>
<path d="M17.29 27.61L14.72 30.76L14.42 31.14C14.5867 31.0533 14.7667 30.9867 14.96 30.94C15.1534 30.8933 15.3634 30.87 15.59 30.87C15.9167 30.87 16.2334 30.9233 16.54 31.03C16.8534 31.1433 17.1267 31.3067 17.36 31.52C17.6 31.74 17.79 32.0133 17.93 32.34C18.0767 32.66 18.15 33.0367 18.15 33.47C18.15 33.8767 18.0767 34.2567 17.93 34.61C17.7767 34.9633 17.5667 35.27 17.3 35.53C17.0334 35.7967 16.71 36.0067 16.33 36.16C15.9567 36.3133 15.54 36.39 15.08 36.39C14.62 36.39 14.2034 36.3133 13.83 36.16C13.4634 36.0133 13.15 35.8067 12.89 35.54C12.63 35.2733 12.43 34.9533 12.29 34.58C12.1567 34.2067 12.09 33.7933 12.09 33.34C12.09 32.9333 12.1734 32.5133 12.34 32.08C12.5067 31.6533 12.7634 31.2067 13.11 30.74L15.18 27.96C15.2534 27.8667 15.3567 27.7867 15.49 27.72C15.63 27.6467 15.79 27.61 15.97 27.61H17.29ZM15.05 35.17C15.29 35.17 15.5067 35.13 15.7 35.05C15.9 34.97 16.07 34.86 16.21 34.72C16.3567 34.5733 16.47 34.4033 16.55 34.21C16.63 34.0167 16.67 33.8067 16.67 33.58C16.67 33.3333 16.63 33.11 16.55 32.91C16.4767 32.71 16.37 32.54 16.23 32.4C16.09 32.2667 15.92 32.1633 15.72 32.09C15.5267 32.0167 15.3134 31.98 15.08 31.98C14.84 31.98 14.6234 32.02 14.43 32.1C14.2434 32.18 14.08 32.2933 13.94 32.44C13.8067 32.58 13.7 32.7467 13.62 32.94C13.5467 33.1333 13.51 33.3433 13.51 33.57C13.51 33.81 13.5434 34.0267 13.61 34.22C13.6767 34.42 13.7734 34.59 13.9 34.73C14.0334 34.87 14.1967 34.98 14.39 35.06C14.5767 35.1333 14.7967 35.17 15.05 35.17ZM20.18 33.02H22.82V30.18C22.82 29.9133 22.8367 29.6167 22.87 29.29L20.18 33.02ZM24.11 33.02H25.2V33.88C25.2 33.96 25.1734 34.0267 25.12 34.08C25.0667 34.14 24.9934 34.17 24.9 34.17H24.11V36.29H22.82V34.17H19.16C19.06 34.17 18.97 34.14 18.89 34.08C18.8167 34.02 18.77 33.9433 18.75 33.85L18.59 33.1L22.7 27.61H24.11V33.02ZM34.73 34.3L33.95 35.08L31.91 33.04L29.86 35.09L29.07 34.32L31.13 32.26L29.17 30.3L29.95 29.52L31.91 31.48L33.85 29.53L34.64 30.31L32.69 32.26L34.73 34.3ZM44 27.61L41.43 30.76L41.13 31.14C41.2967 31.0533 41.4767 30.9867 41.67 30.94C41.8634 30.8933 42.0734 30.87 42.3 30.87C42.6267 30.87 42.9467 30.9233 43.26 31.03C43.5667 31.1433 43.8367 31.3067 44.07 31.52C44.31 31.74 44.5 32.0133 44.64 32.34C44.7867 32.66 44.86 33.0367 44.86 33.47C44.86 33.8767 44.7867 34.2567 44.64 34.61C44.4934 34.9633 44.2834 35.27 44.01 35.53C43.7434 35.7967 43.4234 36.0067 43.05 36.16C42.67 36.3133 42.25 36.39 41.79 36.39C41.33 36.39 40.9167 36.3133 40.55 36.16C40.1767 36.0133 39.86 35.8067 39.6 35.54C39.34 35.2733 39.1434 34.9533 39.01 34.58C38.87 34.2067 38.8 33.7933 38.8 33.34C38.8 32.9333 38.8834 32.5133 39.05 32.08C39.2167 31.6533 39.4734 31.2067 39.82 30.74L41.89 27.96C41.9634 27.8667 42.07 27.7867 42.21 27.72C42.3434 27.6467 42.5 27.61 42.68 27.61H44ZM41.76 35.17C42 35.17 42.22 35.13 42.42 35.05C42.6134 34.97 42.7834 34.86 42.93 34.72C43.07 34.5733 43.18 34.4033 43.26 34.21C43.34 34.0167 43.38 33.8067 43.38 33.58C43.38 33.3333 43.34 33.11 43.26 32.91C43.1867 32.71 43.08 32.54 42.94 32.4C42.8 32.2667 42.6334 32.1633 42.44 32.09C42.24 32.0167 42.0234 31.98 41.79 31.98C41.55 31.98 41.3367 32.02 41.15 32.1C40.9567 32.18 40.79 32.2933 40.65 32.44C40.5167 32.58 40.4134 32.7467 40.34 32.94C40.26 33.1333 40.22 33.3433 40.22 33.57C40.22 33.81 40.2534 34.0267 40.32 34.22C40.3867 34.42 40.4867 34.59 40.62 34.73C40.7467 34.87 40.9067 34.98 41.1 35.06C41.2934 35.1333 41.5134 35.17 41.76 35.17ZM46.89 33.02H49.53V30.18C49.53 29.9133 49.5467 29.6167 49.58 29.29L46.89 33.02ZM50.82 33.02H51.91V33.88C51.91 33.96 51.8834 34.0267 51.83 34.08C51.7767 34.14 51.7034 34.17 51.61 34.17H50.82V36.29H49.53V34.17H45.87C45.77 34.17 45.68 34.14 45.6 34.08C45.5267 34.02 45.48 33.9433 45.46 33.85L45.3 33.1L49.41 27.61H50.82V33.02Z" fill="#999999"/>
</g>
<defs>
<clipPath id="clip0_13_364">
<rect width="64" height="64" fill="white"/>
</clipPath>
</defs>
</svg>
